<svg width="36" height="34" viewBox="0 0 36 34" fill="none" xmlns="http://www.w3.org/2000/svg">
<path d="M32.625 16.9863H27V12.1331C27 9.45621 29.018 7.27984 31.5 7.27984H32.0625C32.9977 7.27984 33.75 6.46844 33.75 5.45988V1.81996C33.75 0.811399 32.9977 0 32.0625 0H31.5C25.2844 0 20.25 5.42955 20.25 12.1331V30.3327C20.25 32.3422 21.7617 33.9726 23.625 33.9726H32.625C34.4883 33.9726 36 32.3422 36 30.3327V20.6262C36 18.6167 34.4883 16.9863 32.625 16.9863ZM12.375 16.9863H6.75V12.1331C6.75 9.45621 8.76797 7.27984 11.25 7.27984H11.8125C12.7477 7.27984 13.5 6.46844 13.5 5.45988V1.81996C13.5 0.811399 12.7477 0 11.8125 0H11.25C5.03437 0 0 5.42955 0 12.1331V30.3327C0 32.3422 1.51172 33.9726 3.375 33.9726H12.375C14.2383 33.9726 15.75 32.3422 15.75 30.3327V20.6262C15.75 18.6167 14.2383 16.9863 12.375 16.9863Z" fill="black"/>
</svg>
