<?xml version="1.0" standalone="no"?>
<!DOCTYPE svg PUBLIC "-//W3C//DTD SVG 20010904//EN"
 "http://www.w3.org/TR/2001/REC-SVG-20010904/DTD/svg10.dtd">
<svg version="1.0" xmlns="http://www.w3.org/2000/svg"
 width="350.000000pt" height="350.000000pt" viewBox="0 0 350.000000 350.000000"
 preserveAspectRatio="xMidYMid meet">
<metadata>
Created by potrace 1.14, written by Peter Selinger 2001-2017
</metadata>
<g transform="translate(0.000000,350.000000) scale(0.100000,-0.100000)"
fill="#000000" stroke="none">
<path d="M48 3483 c-14 -9 -31 -27 -37 -40 -15 -34 -15 -3352 0 -3386 6 -13
23 -31 39 -40 26 -16 158 -17 1699 -17 1179 0 1677 3 1694 11 13 6 31 23 40
39 16 26 17 158 17 1699 0 1179 -3 1677 -11 1694 -6 13 -23 31 -39 40 -26 16
-158 17 -1702 17 -1541 -1 -1675 -2 -1700 -17z"/>
</g>
</svg>
